Coordinates
version=1
nRows=6
nColumns=63
inDegrees=yes

Units are S.I. units (second, meters, Newtons, ...)
If the header above contains a line with 'inDegrees', this indicates whether rotational values are in degrees (yes) or radians (no).

endheader
time	pelvis_tilt	pelvis_list	pelvis_rotation	pelvis_tx	pelvis_ty	pelvis_tz	hip_flexion_r	hip_adduction_r	hip_rotation_r	knee_angle_r	knee_angle_r_beta	ankle_angle_r	subtalar_angle_r	mtp_angle_r	hip_flexion_l	hip_adduction_l	hip_rotation_l	knee_angle_l	knee_angle_l_beta	ankle_angle_l	subtalar_angle_l	mtp_angle_l	L5_S1_Flex_Ext	L5_S1_Lat_Bending	L5_S1_axial_rotation	L4_L5_Flex_Ext	L4_L5_Lat_Bending	L4_L5_axial_rotation	L3_L4_Flex_Ext	L3_L4_Lat_Bending	L3_L4_axial_rotation	L2_L3_Flex_Ext	L2_L3_Lat_Bending	L2_L3_axial_rotation	L1_L2_Flex_Ext	L1_L2_Lat_Bending	L1_L2_axial_rotation	L1_T12_Flex_Ext	L1_T12_Lat_Bending	L1_T12_axial_rotation	Abs_r3	Abs_r2	Abs_r1	Abs_t1	Abs_t2	neck_flexion	neck_bending	neck_rotation	arm_flex_r	arm_add_r	arm_rot_r	elbow_flex_r	pro_sup_r	wrist_flex_r	wrist_dev_r	arm_flex_l	arm_add_l	arm_rot_l	elbow_flex_l	pro_sup_l	wrist_flex_l	wrist_dev_l
     11.66700000	    -40.20930695	      4.50197954	      1.86976951	     -0.16803410	      1.02699750	      0.03751107	     82.51672494	     -9.09442717	      1.55537208	     80.19464556	      1.39966061	     -0.34167971	    -14.98817961	      0.00000000	    109.68265561	     -3.86950401	     -2.23501438	     88.70480604	      1.54819093	      4.62497715	    -10.32113623	      0.00000000	     -0.06759425	     -0.81249255	     -0.41753789	     -0.12552927	     -1.08061509	     -0.44363401	     -0.11105059	     -1.97549439	     -0.44363401	     -0.07725346	     -1.97549439	     -0.36534566	     -0.06276802	     -1.65683481	     -0.33924954	     -0.03862335	     -1.25855096	     -0.31315342	     -0.48281894	     -9.19107822	     -2.32222050	      0.00000000	      0.00000000	      0.00000000	      0.00000000	      0.00000000	     66.54947808	    -11.11227309	     18.92443922	     39.48883560	     63.38268221	      0.00000000	      5.00000014	     70.81083121	    -16.91207029	     23.05225403	     40.06606006	     66.15647220	      0.00000000	      5.00000014
     11.67500000	    -40.17833308	      4.48952290	      1.65145516	     -0.16765422	      1.02726033	      0.03803269	     83.13449266	     -8.98053688	      1.69261962	     81.97346464	      1.43070686	      0.05184758	    -15.32762804	      0.00000000	    108.64794377	     -4.02691752	     -2.22771054	     86.90284591	      1.51674079	      4.60420881	    -10.45152074	      0.00000000	     -0.06934260	     -0.81493033	     -0.38574018	     -0.12877615	     -1.08385733	     -0.40984894	     -0.11392296	     -1.98142160	     -0.40984894	     -0.07925166	     -1.98142160	     -0.33752266	     -0.06439154	     -1.66180592	     -0.31341389	     -0.03962236	     -1.26232708	     -0.28930513	     -0.49530728	     -9.21865484	     -2.14537115	      0.00000000	      0.00000000	      0.00000000	      0.00000000	      0.00000000	     66.41791424	    -11.03275772	     18.93103069	     39.59158078	     63.41602668	      0.00000000	      5.00000014	     70.88513458	    -16.88382785	     23.07844742	     39.78337769	     66.20016838	      0.00000000	      5.00000014
     11.68300000	    -40.13214872	      4.22339051	      1.19030305	     -0.16723255	      1.02747429	      0.03876292	     83.67265889	     -8.54035917	      1.66970281	     83.67189292	      1.46035002	      0.53939316	    -15.57877977	      0.00000000	    107.69899428	     -4.36602735	     -1.85581810	     85.22556709	      1.48746675	      4.36479939	    -10.45590984	      0.00000000	     -0.07009604	     -0.78134361	     -0.31156247	     -0.13017536	     -1.03918701	     -0.33103512	     -0.11516079	     -1.89975886	     -0.33103512	     -0.08011277	     -1.89975886	     -0.27261716	     -0.06509118	     -1.59331590	     -0.25314450	     -0.04005288	     -1.21030126	     -0.23367185	     -0.50068901	     -8.83871523	     -1.73281697	      0.00000000	      0.00000000	      0.00000000	      0.00000000	      0.00000000	     66.35985687	    -11.01702188	     18.90075143	     39.60017042	     63.41985408	      0.00000000	      5.00000014	     70.82406349	    -16.96543532	     23.05776944	     39.73369632	     66.20802947	      0.00000000	      5.00000014
     11.69200000	    -40.08134962	      4.26718744	      0.96502739	     -0.16664772	      1.02777801	      0.03930084	     84.27623118	     -8.41576512	      1.96452096	     85.46686633	      1.49167822	      1.42162495	    -15.64361532	      0.00000000	    106.51366916	     -4.49911402	     -1.92388393	     83.34224258	      1.45459654	      4.52735443	    -11.06427802	      0.00000000	     -0.07071623	     -0.78888293	     -0.27566485	     -0.13132711	     -1.04921430	     -0.29289391	     -0.11617970	     -1.91808996	     -0.29289391	     -0.08082158	     -1.91808996	     -0.24120675	     -0.06566709	     -1.60869008	     -0.22397769	     -0.04040725	     -1.22197966	     -0.20674864	     -0.50511896	     -8.92400150	     -1.53316521	      0.00000000	      0.00000000	      0.00000000	      0.00000000	      0.00000000	     66.20957150	    -10.89889593	     18.75070237	     39.55900439	     63.43317558	      0.00000000	      5.00000014	     70.84148378	    -16.94488181	     22.89238286	     39.39350372	     66.22753171	      0.00000000	      5.00000014
     11.70000000	    -40.05060839	      4.11163987	      0.55992163	     -0.16616187	      1.02808445	      0.03990691	     84.86866951	     -8.04840986	      2.12664282	     87.17802383	      1.52154355	      2.12103360	    -15.63694903	      0.00000000	    105.43206218	     -4.79312876	     -1.71975740	     81.52310205	      1.42284655	      4.29512458	    -11.31310915	      0.00000000	     -0.06980817	     -0.76726579	     -0.20676089	     -0.12964075	     -1.02046350	     -0.21968344	     -0.11468784	     -1.86553004	     -0.21968344	     -0.07978375	     -1.86553004	     -0.18091578	     -0.06482386	     -1.56460839	     -0.16799322	     -0.03988839	     -1.18849470	     -0.15507066	     -0.49863276	     -8.67946404	     -1.14994202	      0.00000000	      0.00000000	      0.00000000	      0.00000000	      0.00000000	     66.15021891	    -10.84766684	     18.61334330	     39.51396197	     63.43555341	      0.00000000	      5.00000014	     70.77493122	    -16.98711338	     22.77405193	     39.27630271	     66.23573207	      0.00000000	      5.00000014
     11.70800000	    -40.00227949	      3.96257828	      0.15479693	     -0.16555559	      1.02838650	      0.04037783	     85.46154542	     -7.75444487	      2.23348249	     88.86859450	      1.55104958	      2.77706044	    -15.56470859	      0.00000000	    104.29338957	     -5.09758636	     -1.58806912	     79.70250151	      1.39107107	      4.10739062	    -11.55180929	      0.00000000	     -0.06764338	     -0.74389773	     -0.14186265	     -0.12562052	     -0.98938398	     -0.15072907	     -0.11113131	     -1.80871294	     -0.15072907	     -0.07730962	     -1.80871294	     -0.12412982	     -0.06281364	     -1.51695625	     -0.11526340	     -0.03865143	     -1.15229758	     -0.10639699	     -0.48316990	     -8.41511990	     -0.78899751	      0.00000000	      0.00000000	      0.00000000	      0.00000000	      0.00000000	     66.07280371	    -10.74808611	     18.52748975	     39.46670601	     63.43977879	      0.00000000	      5.00000014	     70.66451160	    -17.01030646	     22.63163251	     39.12565655	     66.23693709	      0.00000000	      5.00000014
